<svg fill="#ff304f" id="svg5748" xmlns="http://www.w3.org/2000/svg" viewBox="0 0 301.4 301.4" width="2500"
     height="2500">
    <g id="layer1" transform="translate(-111.39 -295.758)">
        <g id="g4145" transform="translate(19.784 -12.497)">
            <path id="polygon6002" d="M228.3 573.2l26-26v-23l-26 26v23z"/>
            <path id="polygon6004" d="M197.4 559.8l26-26v-23l-26 26v23z"/>
            <path id="polygon6006"
                  d="M236.6 435.9l-3.4 3.4 33.3 33.3 4.4-4.1v-2.2h-3.4l3.4-3.3v-8.4l-5.9-5.7 3.5-3.5-9.5-9.3-22.4-.2z"/>
            <path id="polygon6008" d="M270.7 418.8v26l5 5 4.1-4.1v46.9L299 473v-25.8l-28.3-28.4z"/>
            <path id="polygon6010" d="M185.6 548.6l11.8-11.8v-10.3l-11.8 11.8v10.3z"/>
            <path id="polygon6012"
                  d="M185.7 334v102.4l42.7 42.8v64.4l51.4-51.1-51.4-51.1-.1-28.8-12.9-23.5 12.9 12.9v-25.6L185.7 334z"/>
        </g>
    </g>
</svg>
